HIERARCHY
ROOT Hips
{
    OFFSET 0.000000 0.000000 0.000000
    CHANNELS 6 Xposition Yposition Zposition Zrotation Yrotation Xrotation
    JOINT Chest
    {
        OFFSET 0.000000 1.634758 -0.000000
        CHANNELS 3 Zrotation Yrotation Xrotation
        JOINT Chest2
        {
            OFFSET 0.000000 2.197341 0.000000
            CHANNELS 3 Zrotation Yrotation Xrotation
            JOINT Neck
            {
                OFFSET 0.000000 0.961544 0.000000
                CHANNELS 3 Zrotation Yrotation Xrotation
                JOINT Head
                {
                    OFFSET 0.000000 0.632542 -0.032565
                    CHANNELS 3 Zrotation Yrotation Xrotation
                    End Site
                    {
                        OFFSET -0.000001 0.439502 2.922845
                    }
                }
            }
            JOINT LeftCollar
            {
                OFFSET 0.167536 0.778237 -0.168280
                CHANNELS 3 Zrotation Yrotation Xrotation
                JOINT LeftShoulder
                {
                    OFFSET 0.831514 -0.002900 0.006458
                    CHANNELS 3 Zrotation Yrotation Xrotation
                    JOINT LeftElbow
                    {
                        OFFSET 2.272872 -0.026639 0.059314
                        CHANNELS 3 Zrotation Yrotation Xrotation
                        JOINT LeftWrist
                        {
                            OFFSET 2.081982 -0.024402 0.054333
                            CHANNELS 3 Zrotation Yrotation Xrotation
                            JOINT LeftHandThumb1
                            {
                                OFFSET 0.218903 -0.128645 0.283837
                                CHANNELS 3 Zrotation Yrotation Xrotation
                                JOINT LeftHandThumb2
                                {
                                    OFFSET 0.137157 -0.025101 0.077902
                                    CHANNELS 3 Zrotation Yrotation Xrotation
                                    JOINT LeftHandThumb3
                                    {
                                        OFFSET 0.163467 -0.081511 -0.013182
                                        CHANNELS 3 Zrotation Yrotation Xrotation
                                        End Site
                                        {
                                            OFFSET 0.255592 -0.071779 -0.036833
                                        }
                                    }
                                }
                            }
                            JOINT LeftHandFore1
                            {
                                OFFSET 0.767340 -0.016076 0.196678
                                CHANNELS 3 Zrotation Yrotation Xrotation
                                JOINT LeftHandFore2
                                {
                                    OFFSET 0.157397 -0.148744 0.009828
                                    CHANNELS 3 Zrotation Yrotation Xrotation
                                    JOINT LeftHandFore3
                                    {
                                        OFFSET -0.124998 -0.032773 -0.008021
                                        CHANNELS 3 Zrotation Yrotation Xrotation
                                        End Site
                                        {
                                            OFFSET -0.151567 0.119899 -0.004298
                                        }
                                    }
                                }
                            }
                            JOINT LeftHandMiddle1
                            {
                                OFFSET 0.709887 -0.008320 0.018526
                                CHANNELS 3 Zrotation Yrotation Xrotation
                                JOINT LeftHandMiddle2
                                {
                                    OFFSET 0.075372 -0.233007 0.009507
                                    CHANNELS 3 Zrotation Yrotation Xrotation
                                    JOINT LeftHandMiddle3
                                    {
                                        OFFSET -0.143120 -0.029991 0.000522
                                        CHANNELS 3 Zrotation Yrotation Xrotation
                                        End Site
                                        {
                                            OFFSET -0.136463 0.192333 -0.004016
                                        }
                                    }
                                }
                            }
                            JOINT LeftHandRing1
                            {
                                OFFSET 0.743817 -0.005823 -0.153668
                                CHANNELS 3 Zrotation Yrotation Xrotation
                                JOINT LeftHandRing2
                                {
                                    OFFSET 0.001667 -0.352614 0.019841
                                    CHANNELS 3 Zrotation Yrotation Xrotation
                                    JOINT LeftHandRing3
                                    {
                                        OFFSET -0.131382 -0.035009 0.010889
                                        CHANNELS 3 Zrotation Yrotation Xrotation
                                        End Site
                                        {
                                            OFFSET -0.058500 0.104739 -0.005215
                                        }
                                    }
                                }
                            }
                            JOINT LeftHandLittle1
                            {
                                OFFSET 0.689408 -0.053302 -0.308304
                                CHANNELS 3 Zrotation Yrotation Xrotation
                                JOINT LeftHandLittle2
                                {
                                    OFFSET -0.024854 -0.193474 0.002058
                                    CHANNELS 3 Zrotation Yrotation Xrotation
                                    JOINT LeftHandLittle3
                                    {
                                        OFFSET -0.119560 -0.007710 -0.011929
                                        CHANNELS 3 Zrotation Yrotation Xrotation
                                        End Site
                                        {
                                            OFFSET -0.120473 0.145456 -0.024846
                                        }
                                    }
                                }
                            }
                        }
                    }
                }
            }
            JOINT RightCollar
            {
                OFFSET -0.167536 0.778237 -0.168280
                CHANNELS 3 Zrotation Yrotation Xrotation
                JOINT RightShoulder
                {
                    OFFSET -0.831514 -0.002900 0.006457
                    CHANNELS 3 Zrotation Yrotation Xrotation
                    JOINT RightElbow
                    {
                        OFFSET -2.272872 -0.026639 0.059313
                        CHANNELS 3 Zrotation Yrotation Xrotation
                        JOINT RightWrist
                        {
                            OFFSET -2.081982 -0.024402 0.054331
                            CHANNELS 3 Zrotation Yrotation Xrotation
                            JOINT RightHandThumb1
                            {
                                OFFSET -0.218911 -0.128571 0.283837
                                CHANNELS 3 Zrotation Yrotation Xrotation
                                JOINT RightHandThumb2
                                {
                                    OFFSET -0.137157 -0.025101 0.077902
                                    CHANNELS 3 Zrotation Yrotation Xrotation
                                    JOINT RightHandThumb3
                                    {
                                        OFFSET -0.151269 -0.103226 0.001295
                                        CHANNELS 3 Zrotation Yrotation Xrotation
                                        End Site
                                        {
                                            OFFSET -0.194121 -0.181245 0.036103
                                        }
                                    }
                                }
                            }
                            JOINT RightHandFore1
                            {
                                OFFSET -0.767344 -0.015991 0.196679
                                CHANNELS 3 Zrotation Yrotation Xrotation
                                JOINT RightHandFore2
                                {
                                    OFFSET -0.157433 -0.148711 0.009838
                                    CHANNELS 3 Zrotation Yrotation Xrotation
                                    JOINT RightHandFore3
                                    {
                                        OFFSET 0.122706 -0.031613 -0.026567
                                        CHANNELS 3 Zrotation Yrotation Xrotation
                                        End Site
                                        {
                                            OFFSET 0.149969 0.120724 -0.017373
                                        }
                                    }
                                }
                            }
                            JOINT RightHandMiddle1
                            {
                                OFFSET -0.709887 -0.008302 0.018525
                                CHANNELS 3 Zrotation Yrotation Xrotation
                                JOINT RightHandMiddle2
                                {
                                    OFFSET -0.075348 -0.233011 0.009507
                                    CHANNELS 3 Zrotation Yrotation Xrotation
                                    JOINT RightHandMiddle3
                                    {
                                        OFFSET 0.142681 -0.030282 -0.010470
                                        CHANNELS 3 Zrotation Yrotation Xrotation
                                        End Site
                                        {
                                            OFFSET 0.135910 0.191954 -0.017681
                                        }
                                    }
                                }
                            }
                            JOINT RightHandRing1
                            {
                                OFFSET -0.743819 -0.005785 -0.153669
                                CHANNELS 3 Zrotation Yrotation Xrotation
                                JOINT RightHandRing2
                                {
                                    OFFSET -0.001692 -0.352614 0.019841
                                    CHANNELS 3 Zrotation Yrotation Xrotation
                                    JOINT RightHandRing3
                                    {
                                        OFFSET 0.131552 -0.035820 -0.003989
                                        CHANNELS 3 Zrotation Yrotation Xrotation
                                        End Site
                                        {
                                            OFFSET 0.058480 0.104749 -0.005286
                                        }
                                    }
                                }
                            }
                            JOINT RightHandLittle1
                            {
                                OFFSET -0.689403 -0.053298 -0.308303
                                CHANNELS 3 Zrotation Yrotation Xrotation
                                JOINT RightHandLittle2
                                {
                                    OFFSET 0.024848 -0.193478 0.002057
                                    CHANNELS 3 Zrotation Yrotation Xrotation
                                    JOINT RightHandLittle3
                                    {
                                        OFFSET 0.119912 -0.007457 0.007817
                                        CHANNELS 3 Zrotation Yrotation Xrotation
                                        End Site
                                        {
                                            OFFSET 0.121194 0.146016 0.016731
                                        }
                                    }
                                }
                            }
                        }
                    }
                }
            }
        }
    }
    JOINT LeftHip
    {
        OFFSET 0.685143 0.673822 -0.044491
        CHANNELS 3 Zrotation Yrotation Xrotation
        JOINT LeftKnee
        {
            OFFSET 0.085364 -3.750208 0.017676
            CHANNELS 3 Zrotation Yrotation Xrotation
            JOINT LeftAnkle
            {
                OFFSET 0.094583 -4.155206 0.019585
                CHANNELS 3 Zrotation Yrotation Xrotation
                JOINT LeftToe
                {
                    OFFSET -0.000000 -0.395925 0.621478
                    CHANNELS 3 Zrotation Yrotation Xrotation
                    End Site
                    {
                        OFFSET -0.000000 -0.077878 0.321152
                    }
                }
            }
        }
    }
    JOINT RightHip
    {
        OFFSET -0.685143 0.673822 -0.044492
        CHANNELS 3 Zrotation Yrotation Xrotation
        JOINT RightKnee
        {
            OFFSET -0.085364 -3.750208 0.017677
            CHANNELS 3 Zrotation Yrotation Xrotation
            JOINT RightAnkle
            {
                OFFSET -0.094583 -4.155206 0.019585
                CHANNELS 3 Zrotation Yrotation Xrotation
                JOINT RightToe
                {
                    OFFSET -0.000000 -0.395925 0.621478
                    CHANNELS 3 Zrotation Yrotation Xrotation
                    End Site
                    {
                        OFFSET -0.000000 -0.077878 0.321152
                    }
                }
            }
        }
    }
}
MOTION
Frames: 5
Frame Time: 0.033333
9.202507 8.573668 -17.800516 -175.468109 -4.556995 -172.141571 -2.776762 2.654069 -11.667733 1.428504 -0.541850 -3.150632 12.029221 -3.317915 12.202074 0.410259 -7.917852 25.341829 -6.272069 0.343473 -0.068667 -39.542122 52.165596 22.297201 178.230896 -52.481819 -179.135208 -25.509010 -4.360519 -4.432616 0.000003 -0.000003 -0.000008 -0.000005 0.000028 0.000008 -0.000002 0.000018 0.000002 -0.000075 -0.000014 0.000007 -0.000121 0.000003 0.000017 -0.000070 0.000004 0.000004 -0.000012 -0.000001 -0.000006 0.000000 -0.000000 0.000002 -0.000140 -0.000008 0.000004 -0.000118 -0.000009 -0.000007 -0.000102 -0.000008 -0.000003 -0.000116 -0.000009 -0.000008 -0.000133 -0.000004 -0.000020 -0.000108 -0.000007 -0.000003 -0.000020 -0.000003 -0.000001 3.130189 9.307667 0.003647 31.881929 28.983204 21.764776 -177.471649 68.913376 -178.272293 15.393469 3.347014 -4.297400 -0.000012 -0.000001 -0.000007 -14.148303 -1.502484 -15.500562 -13.425331 2.898488 -7.890646 -45.837013 -5.281934 -4.295067 -123.267212 -11.764980 -13.781776 -56.737831 -1.461671 -10.807525 -67.868958 -2.361199 0.349536 -96.258278 -6.015450 -2.189915 -64.796555 -3.682088 -2.609657 -75.298386 1.196372 3.549349 -76.881836 -2.248388 2.136851 -75.049095 -4.174679 -1.317213 -77.970215 -2.639121 1.805219 -69.814621 3.354178 -6.418107 -64.309349 3.380003 -2.725290 10.521883 -3.999744 -16.891142 0.032312 0.288483 12.779408 0.152623 0.248668 -9.415260 -0.000004 -0.000013 -0.000001 -17.122393 3.067608 -7.418714 -0.029461 -0.275680 12.203198 2.890434 6.576370 -2.751080 -0.000006 -0.000024 0.000024
9.041031 8.573727 -18.078718 -176.189621 -5.027346 -171.745865 -2.508668 4.221062 -12.532795 1.645818 -0.794046 -3.570960 10.992404 -3.393754 10.738234 0.440110 -8.485845 22.378153 -6.324828 0.864662 -0.098623 -39.250572 53.967781 21.908995 178.211777 -53.232975 -179.111160 -25.201834 -5.307136 -4.794309 0.000005 0.000003 -0.000008 -0.000005 0.000026 0.000006 -0.000003 0.000014 0.000004 -0.000080 -0.000010 0.000005 -0.000128 0.000003 0.000017 -0.000065 0.000003 0.000005 -0.000007 -0.000000 -0.000006 -0.000002 -0.000000 -0.000001 -0.000142 -0.000005 0.000004 -0.000123 -0.000004 -0.000005 -0.000099 -0.000009 -0.000003 -0.000120 -0.000009 -0.000007 -0.000138 -0.000004 -0.000018 -0.000102 -0.000003 -0.000001 -0.000024 -0.000002 -0.000002 0.785807 13.391013 -0.031657 -11.097574 33.439201 16.337456 -0.803257 63.055862 -1.316648 54.276127 3.529400 -4.797847 0.000000 0.000003 -0.000014 -15.850316 -10.859827 -6.680154 -6.801365 0.947262 0.214175 -32.243389 -2.198535 -6.638842 -113.721176 -10.075670 -14.001350 -54.582230 -1.213057 -10.452024 -53.564514 -3.110001 2.618848 -80.814308 -4.934187 -2.587023 -56.822067 -3.099300 -2.538772 -61.466312 2.119753 6.542855 -68.628677 -0.146927 3.435710 -67.881805 -3.743783 -1.443804 -67.910789 -10.144028 4.548072 -49.666088 3.158745 -4.226527 -51.881638 3.002668 -1.910209 8.276457 -1.703422 -15.424449 0.033297 0.292793 12.973659 -0.543139 -1.258899 -11.486578 0.000004 0.000017 0.000011 -18.916281 0.799345 -4.782960 0.000001 0.000001 0.000000 9.604843 11.954939 3.789041 -0.000001 -0.000007 0.000004
8.878656 8.573729 -18.322544 -176.879745 -5.393325 -171.433670 -2.533030 5.291769 -13.475591 1.393505 -0.925986 -4.134588 9.954578 -3.389666 9.567172 0.448751 -8.649871 20.094248 -6.262792 1.152579 -0.111217 -38.669945 55.304829 21.618826 178.213974 -53.147709 -179.113922 -24.325163 -6.293411 -5.244815 0.000007 -0.000001 0.000006 -0.000009 0.000031 0.000005 -0.000002 0.000016 0.000001 -0.000084 -0.000002 0.000010 -0.000111 0.000003 0.000016 -0.000065 0.000009 0.000004 -0.000014 0.000009 -0.000003 0.000003 -0.000000 0.000000 -0.000140 -0.000007 0.000001 -0.000128 0.000003 -0.000003 -0.000102 -0.000009 -0.000003 -0.000114 -0.000011 -0.000006 -0.000138 0.000009 -0.000014 -0.000104 -0.000005 -0.000002 -0.000019 0.000003 0.000000 -4.516148 13.898814 -0.128376 -23.165949 39.823441 -7.242009 -0.057908 23.274643 -0.288490 30.069454 -15.854806 16.260763 -0.000007 0.000012 -0.000016 -17.440151 -15.379791 -1.284562 -3.153239 -0.498757 4.144632 -24.967508 -0.564176 -7.876419 -108.596687 -9.169654 -14.027184 -53.420753 -1.085725 -10.257385 -45.889320 -3.532411 3.874770 -72.508621 -4.313178 -2.725543 -52.528221 -2.803892 -2.472503 -53.990788 2.598571 8.188251 -64.193314 1.013301 4.138079 -64.023697 -3.511306 -1.498142 -62.761524 -14.172882 6.110217 -38.815384 3.049288 -2.983179 -45.195534 2.760696 -1.597246 6.318092 -0.253934 -13.539041 0.029189 0.274351 12.143570 -0.212287 -1.810352 -12.689755 -0.000003 -0.000013 -0.000003 -20.124023 -0.885232 -8.956433 -0.000000 -0.000000 0.000000 16.085653 16.690113 5.168290 -0.000005 -0.000010 -0.000004
8.716243 8.573514 -18.543282 -177.534439 -5.625597 -171.228821 -3.027530 5.675217 -13.988818 0.534374 -0.918007 -4.325830 8.963497 -3.303726 8.310600 0.425999 -8.217593 17.645302 -6.044775 1.255264 -0.099609 -37.572872 57.147854 21.607687 178.247025 -51.821228 -179.155685 -23.106600 -7.313011 -5.778620 0.000003 -0.000009 -0.000000 -0.000002 0.000030 0.000004 -0.000003 0.000020 0.000003 -0.000085 -0.000009 0.000006 -0.000108 0.000002 0.000019 -0.000068 0.000003 0.000003 -0.000007 0.000006 -0.000007 0.000002 -0.000001 -0.000000 -0.000143 -0.000009 0.000003 -0.000123 0.000002 -0.000011 -0.000099 -0.000010 -0.000001 -0.000118 -0.000011 -0.000009 -0.000138 0.000003 -0.000021 -0.000104 -0.000009 0.000002 -0.000017 -0.000000 -0.000001 -6.833632 13.798372 -0.162248 -36.308727 39.499443 -12.141026 -0.057695 23.234495 -0.287934 5.609435 -12.984042 25.452351 -0.000013 0.000003 -0.000012 -14.979029 -6.407891 -11.216254 -10.144112 2.045238 -3.715360 -39.026588 -3.733114 -5.475573 -118.484444 -10.912056 -13.949483 -55.658997 -1.339117 -10.635625 -60.709866 -2.760340 1.495024 -88.531639 -5.484227 -2.430613 -60.807789 -3.395853 -2.590373 -68.385666 1.734192 5.158755 -72.752632 -1.206374 2.785747 -71.465050 -3.959552 -1.384681 -72.872208 -6.383629 3.234529 -59.740948 3.255367 -5.341405 -58.093880 3.205891 -2.280666 4.552232 0.043333 -11.268437 0.022207 0.239623 10.587331 3.631048 0.356500 -13.195113 -0.000005 -0.000015 0.000003 -18.603006 -1.790971 -13.533257 -0.000001 0.000001 -0.000000 19.614410 20.531042 8.466868 -0.000007 -0.000027 0.000012
8.554651 8.572936 -18.770279 -178.149704 -5.694838 -171.155289 -3.884878 5.351806 -14.323254 -0.737745 -0.775202 -4.458139 8.006313 -3.186603 7.241649 0.386084 -7.456804 15.669759 -5.691801 1.343263 -0.068805 -35.714664 60.681786 22.105619 178.299652 -49.471252 -179.223953 -21.774380 -8.353268 -6.374843 0.000001 -0.000003 0.000000 -0.000004 0.000029 0.000005 -0.000003 0.000015 0.000008 -0.000085 -0.000014 0.000004 -0.000108 0.000003 0.000018 -0.000067 0.000006 0.000006 -0.000015 -0.000001 -0.000010 0.000001 0.000003 0.000001 -0.000140 -0.000006 0.000001 -0.000130 -0.000009 -0.000009 -0.000101 -0.000005 -0.000003 -0.000114 -0.000014 -0.000007 -0.000137 -0.000003 -0.000021 -0.000102 -0.000007 -0.000002 -0.000018 -0.000001 0.000001 -8.040674 14.413482 -0.151787 -46.040497 50.511047 -17.864973 0.000000 -0.000002 0.000001 -13.137289 -7.249177 29.800566 -0.000015 -0.000007 -0.000015 -13.877101 3.940740 -19.713005 -16.865622 3.539135 -12.634223 -53.203522 -6.963220 -3.000364 -128.427353 -12.667709 -13.570232 -57.897758 -1.601992 -10.995573 -75.597626 -1.972274 -0.835579 -104.585777 -6.545611 -1.908973 -69.091064 -4.011513 -2.618061 -82.719749 0.687807 1.972528 -81.334480 -3.350975 1.438002 -78.909767 -4.405043 -1.235284 -83.638161 1.405808 0.376593 -80.661545 3.470764 -7.536391 -71.005852 3.525915 -3.282920 2.557775 0.160599 -8.493405 0.014413 0.193328 8.524719 6.704496 8.274099 -13.210422 0.000002 0.000003 -0.000004 -15.052220 -1.787153 -17.958153 0.000001 0.000000 -0.000001 19.916609 24.210279 13.319789 -0.000000 -0.000002 -0.000024
